<?xml version="1.0" encoding="UTF-8"?>
<!-- Generator: visioncortex VTracer 0.6.4 -->
<svg version="1.1" xmlns="http://www.w3.org/2000/svg" width="512" height="512">
<path d="M0 0 C0.86 -0.02 1.71 -0.04 2.59 -0.06 C13.65 -0.13 21.43 4.21 30.75 9.81 C31.8 10.43 32.85 11.05 33.94 11.69 C38.7 14.51 43.43 17.35 48.14 20.25 C55.43 24.72 61.98 28.1 70.32 30.34 C81.18 33.71 89.28 41.53 94.83 51.23 C99.98 62.18 102.4 73.69 102.39 85.75 C102.39 87 102.39 87 102.4 88.27 C102.41 91.04 102.41 93.81 102.41 96.58 C102.42 98.57 102.42 100.56 102.43 102.55 C102.44 107.96 102.45 113.36 102.45 118.76 C102.45 122.15 102.46 125.53 102.46 128.91 C102.48 139.51 102.49 150.12 102.49 160.72 C102.49 172.92 102.51 185.12 102.54 197.33 C102.56 206.78 102.57 216.24 102.57 225.69 C102.57 231.32 102.58 236.96 102.6 242.6 C102.61 247.91 102.62 253.22 102.61 258.53 C102.61 260.47 102.61 262.4 102.62 264.34 C102.7 279.95 101.33 295.08 96.62 310.06 C96.25 311.29 96.25 311.29 95.86 312.54 C88.92 334.21 78.55 354.52 64.25 372.25 C63.57 373.13 62.89 374.02 62.18 374.93 C45.86 395.67 26.45 408.47 3.68 421.31 C-1.82 424.42 -7.28 427.59 -12.75 430.75 C-14.92 432 -17.08 433.25 -19.25 434.5 C-20.32 435.12 -21.39 435.74 -22.5 436.38 C-58.25 457 -58.25 457 -61.5 458.88 C-63.67 460.12 -65.83 461.37 -68 462.62 C-73.44 465.76 -78.88 468.9 -84.32 472.04 C-86.51 473.29 -88.69 474.55 -90.88 475.81 C-91.95 476.43 -93.02 477.05 -94.13 477.69 C-99.43 480.74 -104.71 483.81 -109.98 486.92 C-161.01 517.01 -161.01 517.01 -187.63 511.44 C-194.48 509.11 -199.41 505.5 -204.53 500.43 C-208.53 496.49 -212.72 493.57 -217.65 490.89 C-218.78 490.28 -219.91 489.66 -221.08 489.02 C-221.67 488.7 -222.26 488.38 -222.87 488.05 C-262.5 466.5 -262.5 466.5 -268.75 447.25 C-271.87 435.47 -272.18 424.13 -272.14 412.01 C-272.14 410.02 -272.15 408.03 -272.15 406.04 C-272.17 400.67 -272.16 395.3 -272.15 389.93 C-272.15 384.28 -272.15 378.63 -272.16 372.98 C-272.16 363.49 -272.16 354.01 -272.14 344.52 C-272.12 333.6 -272.13 322.67 -272.15 311.75 C-272.16 302.33 -272.16 292.91 -272.15 283.49 C-272.15 277.88 -272.15 272.27 -272.16 266.66 C-272.17 261.38 -272.16 256.1 -272.14 250.82 C-272.14 248.9 -272.14 246.98 -272.15 245.06 C-272.2 229.41 -270.78 214.26 -266.06 199.25 C-265.81 198.43 -265.56 197.6 -265.29 196.76 C-262.48 187.94 -258.81 179.56 -254.75 171.25 C-254.27 170.27 -254.27 170.27 -253.79 169.27 C-237.16 135.45 -211.43 111.52 -179.01 93.11 C-174.7 90.65 -170.41 88.17 -166.11 85.68 C-162.85 83.8 -159.59 81.92 -156.32 80.04 C-149.8 76.28 -143.27 72.51 -136.75 68.75 C-134.58 67.5 -132.42 66.25 -130.25 65 C-129.18 64.38 -128.1 63.76 -127 63.12 C-115.08 56.25 -103.17 49.38 -91.25 42.5 C-89.64 41.57 -89.64 41.57 -88 40.62 C-85.84 39.38 -83.68 38.13 -81.52 36.89 C-76 33.7 -70.48 30.52 -64.97 27.32 C-59.54 24.18 -54.11 21.05 -48.68 17.93 C-46.81 16.86 -44.94 15.78 -43.08 14.7 C-29.1 6.64 -16.45 0.1 0 0 Z " fill="#3A4041" transform="translate(340.75,-0.25)"/>
<path d="M0 0 C0.86 -0.02 1.71 -0.04 2.59 -0.06 C13.65 -0.13 21.43 4.21 30.75 9.81 C31.79 10.43 32.84 11.05 33.91 11.69 C36.02 12.94 38.13 14.2 40.23 15.46 C43.01 17.11 45.8 18.74 48.59 20.36 C49.39 20.82 50.18 21.28 51 21.76 C52.47 22.61 53.95 23.46 55.42 24.32 C57.05 25.27 58.65 26.25 60.25 27.25 C60.25 27.58 60.25 27.91 60.25 28.25 C59.43 28.26 58.6 28.28 57.75 28.29 C32.91 29.32 12.56 43.07 -8.34 55.26 C-13.8 58.44 -19.27 61.6 -24.75 64.75 C-26.92 66 -29.08 67.25 -31.25 68.5 C-96.25 106 -96.25 106 -99.5 107.88 C-101.66 109.12 -103.82 110.37 -105.97 111.61 C-111.53 114.82 -117.09 118.01 -122.67 121.18 C-139.57 130.77 -154.93 140.5 -168.75 154.25 C-169.46 154.96 -169.46 154.96 -170.19 155.68 C-191.37 176.98 -206.55 205.5 -214.75 234.25 C-214.98 235.04 -215.2 235.82 -215.44 236.63 C-221.24 257.87 -220.46 279.52 -220.36 301.34 C-220.34 306.79 -220.34 312.24 -220.34 317.7 C-220.34 326.84 -220.32 335.97 -220.29 345.11 C-220.26 355.63 -220.25 366.15 -220.25 376.66 C-220.26 386.85 -220.25 397.05 -220.23 407.24 C-220.22 411.54 -220.22 415.85 -220.22 420.15 C-220.22 425.23 -220.21 430.31 -220.18 435.38 C-220.17 437.23 -220.17 439.08 -220.17 440.92 C-220.2 458.35 -220.16 478.96 -208.75 493.25 C-209.08 493.91 -209.41 494.57 -209.75 495.25 C-262.47 466.6 -262.47 466.6 -268.75 447.25 C-271.87 435.47 -272.18 424.13 -272.14 412.01 C-272.14 410.02 -272.15 408.03 -272.15 406.04 C-272.17 400.67 -272.16 395.3 -272.15 389.93 C-272.15 384.28 -272.15 378.63 -272.16 372.98 C-272.16 363.49 -272.16 354.01 -272.14 344.52 C-272.12 333.6 -272.13 322.67 -272.15 311.75 C-272.16 302.33 -272.16 292.91 -272.15 283.49 C-272.15 277.88 -272.15 272.27 -272.16 266.66 C-272.17 261.38 -272.16 256.1 -272.14 250.82 C-272.14 248.9 -272.14 246.98 -272.15 245.06 C-272.2 229.41 -270.78 214.26 -266.06 199.25 C-265.81 198.43 -265.56 197.6 -265.29 196.76 C-262.48 187.94 -258.81 179.56 -254.75 171.25 C-254.27 170.27 -254.27 170.27 -253.79 169.27 C-237.16 135.45 -211.43 111.52 -179.01 93.11 C-174.7 90.65 -170.41 88.17 -166.11 85.68 C-162.85 83.8 -159.59 81.92 -156.32 80.04 C-149.8 76.28 -143.27 72.51 -136.75 68.75 C-134.58 67.5 -132.42 66.25 -130.25 65 C-129.18 64.38 -128.1 63.76 -127 63.12 C-115.08 56.25 -103.17 49.38 -91.25 42.5 C-89.64 41.57 -89.64 41.57 -88 40.62 C-85.84 39.38 -83.68 38.13 -81.52 36.89 C-76 33.7 -70.48 30.52 -64.97 27.32 C-59.54 24.18 -54.11 21.05 -48.68 17.93 C-46.81 16.86 -44.94 15.78 -43.08 14.7 C-29.1 6.64 -16.45 0.1 0 0 Z " fill="#252B2D" transform="translate(340.75,-0.25)"/>
<path d="M0 0 C4.21 1.28 7.81 2.87 11.61 5.09 C12.66 5.7 13.72 6.32 14.81 6.95 C15.93 7.61 17.04 8.26 18.19 8.94 C20.51 10.3 22.84 11.67 25.16 13.03 C25.74 13.37 26.32 13.71 26.91 14.06 C30.55 16.18 34.22 18.21 37.93 20.19 C39.26 20.91 39.26 20.91 40.61 21.64 C42.25 22.53 43.9 23.39 45.56 24.23 C47.61 25.36 49.32 26.38 51 28 C51.66 31.35 51.28 33.81 50.51 37.11 C48.47 46.42 48.71 55.73 48.73 65.21 C48.72 67.15 48.72 69.08 48.71 71.01 C48.7 76.23 48.7 81.45 48.7 86.67 C48.7 91.05 48.69 95.42 48.69 99.8 C48.68 110.14 48.68 120.47 48.68 130.81 C48.69 141.43 48.68 152.05 48.66 162.67 C48.64 171.82 48.63 180.97 48.64 190.12 C48.64 195.57 48.64 201.02 48.62 206.47 C48.61 211.61 48.61 216.74 48.62 221.88 C48.63 223.75 48.62 225.62 48.62 227.49 C48.54 244.97 48.55 265.65 60 280 C59.67 280.66 59.34 281.32 59 282 C6.28 253.35 6.28 253.35 0 234 C-3.13 222.19 -3.42 210.83 -3.37 198.69 C-3.37 196.68 -3.38 194.68 -3.38 192.68 C-3.39 187.29 -3.38 181.9 -3.37 176.51 C-3.36 170.85 -3.36 165.18 -3.36 159.52 C-3.37 150.01 -3.35 140.5 -3.34 131 C-3.32 120.03 -3.31 109.07 -3.32 98.1 C-3.32 87.52 -3.32 76.93 -3.31 66.35 C-3.3 61.86 -3.3 57.37 -3.3 52.88 C-3.31 47.59 -3.3 42.3 -3.28 37.01 C-3.28 35.08 -3.28 33.14 -3.28 31.21 C-3.3 10.8 -3.3 10.8 -1 1 C-0.67 0.67 -0.34 0.34 0 0 Z " fill="#090C0C" transform="translate(72,213)"/>
<path d="M0 0 C12.93 10.65 18.09 24.58 20.19 40.8 C20.71 47.54 20.6 54.29 20.58 61.04 C20.58 63.03 20.59 65.03 20.6 67.02 C20.61 72.39 20.6 77.76 20.59 83.13 C20.59 88.78 20.59 94.43 20.6 100.08 C20.6 109.56 20.6 119.05 20.58 128.53 C20.57 139.46 20.57 150.38 20.59 161.31 C20.6 170.73 20.6 180.15 20.6 189.57 C20.59 195.18 20.59 200.79 20.6 206.39 C20.61 211.67 20.6 216.95 20.59 222.23 C20.58 224.15 20.58 226.08 20.59 228 C20.64 243.56 19.26 258.68 14.57 273.62 C14.19 274.84 14.19 274.84 13.8 276.1 C6.86 297.76 -3.51 318.07 -17.81 335.8 C-18.49 336.69 -19.17 337.57 -19.88 338.48 C-36.2 359.22 -55.61 372.02 -78.38 384.87 C-83.88 387.98 -89.34 391.14 -94.81 394.3 C-96.98 395.55 -99.14 396.8 -101.31 398.05 C-102.38 398.67 -103.45 399.29 -104.56 399.93 C-140.31 420.55 -140.31 420.55 -143.56 422.43 C-145.72 423.68 -147.89 424.93 -150.05 426.18 C-155.49 429.32 -160.94 432.45 -166.38 435.59 C-168.56 436.85 -170.75 438.11 -172.93 439.37 C-174.01 439.99 -175.08 440.6 -176.19 441.24 C-181.49 444.3 -186.77 447.37 -192.04 450.47 C-243.06 480.56 -243.06 480.56 -269.69 474.99 C-282.18 470.74 -290.14 461.57 -296.18 450.24 C-303.22 435.26 -303.26 418.08 -303.24 401.84 C-303.25 399.92 -303.26 398.01 -303.27 396.09 C-303.3 390.94 -303.31 385.8 -303.31 380.65 C-303.31 377.42 -303.32 374.18 -303.33 370.95 C-303.35 359.61 -303.37 348.28 -303.36 336.94 C-303.36 326.46 -303.39 315.98 -303.44 305.5 C-303.48 296.43 -303.5 287.37 -303.5 278.3 C-303.49 272.91 -303.5 267.53 -303.53 262.14 C-303.85 204.7 -289.16 156.26 -248.43 114.12 C-238.32 104.24 -227.02 96.82 -214.81 89.8 C-212.87 88.68 -210.93 87.56 -208.99 86.43 C-203.41 83.21 -197.82 79.99 -192.24 76.78 C-186.76 73.62 -181.28 70.46 -175.81 67.3 C-169.29 63.54 -162.76 59.78 -156.24 56.02 C-145.79 50 -135.35 43.96 -124.93 37.87 C-115.08 32.11 -105.18 26.43 -95.26 20.79 C-89.54 17.53 -83.85 14.25 -78.19 10.89 C-57.51 -1.39 -57.51 -1.39 -46.81 -5.2 C-45.93 -5.53 -45.06 -5.86 -44.16 -6.21 C-29.19 -11.18 -12.8 -9.21 0 0 Z M-86.37 23.03 C-93.15 27.02 -99.97 30.91 -106.81 34.8 C-116.53 40.34 -126.22 45.94 -135.88 51.59 C-146.4 57.74 -156.96 63.83 -167.53 69.91 C-170.79 71.79 -174.05 73.68 -177.32 75.56 C-178.93 76.49 -178.93 76.49 -180.57 77.43 C-182.72 78.68 -184.88 79.92 -187.03 81.17 C-192.01 84.05 -197 86.92 -202.02 89.75 C-219.69 99.63 -219.69 99.63 -235.81 111.8 C-236.57 112.46 -236.57 112.46 -237.34 113.13 C-267.83 139.65 -293 181.07 -295.98 222.15 C-296.25 228.31 -296.22 234.47 -296.2 240.63 C-296.2 242.68 -296.21 244.72 -296.21 246.76 C-296.23 252.26 -296.22 257.77 -296.21 263.27 C-296.2 269.05 -296.21 274.83 -296.22 280.61 C-296.22 290.31 -296.21 300 -296.2 309.7 C-296.18 320.89 -296.19 332.09 -296.21 343.28 C-296.22 352.92 -296.22 362.55 -296.21 372.19 C-296.21 377.94 -296.21 383.68 -296.22 389.42 C-296.23 394.82 -296.22 400.22 -296.2 405.62 C-296.2 407.59 -296.2 409.56 -296.21 411.54 C-296.24 421.37 -296.26 430.45 -292.81 439.8 C-292.46 440.91 -292.1 442.01 -291.74 443.15 C-287.32 454.53 -279.91 462.61 -268.81 467.8 C-264.55 469.06 -260.47 468.99 -256.06 468.99 C-255.29 469 -254.51 469.02 -253.71 469.03 C-233.31 469.08 -214.55 455.48 -197.55 445.5 C-189.67 440.88 -181.75 436.33 -173.81 431.8 C-164.09 426.27 -154.4 420.67 -144.74 415.02 C-132.03 407.59 -119.27 400.26 -106.52 392.91 C-101.09 389.78 -95.66 386.65 -90.23 383.51 C-85.91 381.02 -81.59 378.54 -77.26 376.07 C-38.28 353.73 -9.19 321.99 5.19 278.8 C5.64 277.61 6.09 276.42 6.55 275.19 C12.74 258.24 13.64 240.8 13.58 222.91 C13.58 220.9 13.59 218.9 13.6 216.9 C13.61 211.52 13.6 206.15 13.59 200.78 C13.59 195.12 13.59 189.47 13.6 183.81 C13.6 174.33 13.6 164.85 13.58 155.37 C13.57 144.43 13.57 133.5 13.59 122.56 C13.6 113.13 13.6 103.7 13.6 94.27 C13.59 88.66 13.59 83.04 13.6 77.43 C13.61 72.15 13.6 66.88 13.59 61.61 C13.58 59.68 13.58 57.75 13.59 55.83 C13.64 39.02 11.91 21.68 -0.18 8.74 C-10.32 -0.23 -21.72 -2.12 -34.83 -1.37 C-53.07 0.27 -71.03 14 -86.37 23.03 Z " fill="#4D5557" transform="translate(422.80859375,36.1953125)"/>
<path d="M0 0 C4.04 1.76 7.78 3.95 11.56 6.19 C12.65 6.81 13.73 7.43 14.84 8.08 C18.24 10.04 21.62 12.02 25 14 C27.15 15.24 29.29 16.49 31.44 17.73 C36.43 20.61 41.39 23.52 46.35 26.45 C48.79 27.88 51.24 29.29 53.7 30.7 C55.05 31.49 56.4 32.28 57.75 33.06 C58.88 33.71 60.01 34.36 61.17 35.04 C64.14 37.1 66 39 68 42 C68.93 47.37 68.09 50.24 65.43 54.95 C64.88 55.92 64.34 56.89 63.78 57.89 C62.9 59.43 62.9 59.43 62 61 C61.42 62.03 60.83 63.07 60.23 64.13 C58.33 67.49 56.42 70.84 54.5 74.19 C54.15 74.79 53.81 75.4 53.45 76.02 C48.12 85.35 42.73 94.64 37.3 103.91 C33.11 111.06 29 118.25 24.9 125.44 C22.57 129.54 20.23 133.62 17.89 137.71 C16.66 139.84 15.44 141.98 14.22 144.12 C12.62 146.92 11 149.71 9.38 152.5 C8.68 153.72 8.68 153.72 7.98 154.96 C5.26 159.57 2.87 162.45 -2 165 C-5.63 165.66 -7.82 165.77 -10.96 163.72 C-14.52 160.76 -16.72 158.83 -17.44 154.12 C-17.3 144.77 -9.2 134.71 -4.56 126.88 C-3.32 124.77 -2.08 122.66 -0.84 120.55 C-0.21 119.47 0.42 118.39 1.08 117.28 C4.22 111.91 7.33 106.52 10.44 101.12 C11.05 100.06 11.67 98.99 12.3 97.89 C13.56 95.71 14.82 93.52 16.07 91.34 C18.73 86.73 21.39 82.12 24.05 77.51 C25.3 75.33 26.56 73.16 27.81 70.98 C31.85 63.97 35.92 56.98 40 50 C39.11 49.73 38.23 49.46 37.32 49.18 C34.25 48.09 31.73 46.85 28.94 45.2 C27.51 44.36 27.51 44.36 26.05 43.51 C25.05 42.91 24.04 42.31 23 41.69 C20.86 40.42 18.72 39.15 16.57 37.89 C15.49 37.24 14.4 36.6 13.28 35.93 C10.1 34.06 6.91 32.22 3.71 30.39 C2.72 29.82 1.72 29.25 0.7 28.66 C-1.18 27.58 -3.06 26.51 -4.96 25.44 C-10.01 22.5 -13.72 19.89 -17 15 C-17.74 10.77 -18.01 8.6 -15.71 4.97 C-10.89 -0.82 -7.5 -1.81 0 0 Z " fill="#FCFCFC" transform="translate(212,265)"/>
<path d="M0 0 C3.63 1.62 4.77 2.66 7 6 C7.37 8.27 7.37 8.27 7.44 10.81 C7.5 12.06 7.5 12.06 7.56 13.33 C6.49 18.42 3.56 20.97 -0.62 23.73 C-3.94 25.7 -7.3 27.58 -10.69 29.44 C-11.95 30.14 -13.2 30.84 -14.46 31.55 C-17.04 33 -19.63 34.44 -22.22 35.88 C-27.89 39.05 -33.51 42.31 -39.12 45.56 C-41.24 46.79 -43.36 48.01 -45.48 49.23 C-49.47 51.54 -53.45 53.84 -57.43 56.14 C-59.83 57.53 -62.24 58.92 -64.64 60.31 C-66.34 61.29 -68.03 62.27 -69.73 63.25 C-70.75 63.85 -71.78 64.44 -72.84 65.05 C-74.19 65.83 -74.19 65.83 -75.57 66.63 C-80.96 69.67 -84.76 70.9 -91 70 C-94.15 68.19 -95.56 66.79 -97.31 63.62 C-98.29 59.9 -98.63 56.64 -97.23 52.99 C-95.78 50.65 -94.44 49.66 -92.12 48.18 C-91.31 47.67 -90.5 47.15 -89.67 46.62 C-84.85 43.69 -79.97 40.86 -75.06 38.06 C-73.33 37.07 -71.6 36.08 -69.87 35.08 C-68.09 34.06 -66.31 33.04 -64.52 32.02 C-60.08 29.47 -55.64 26.91 -51.21 24.35 C-49.07 23.12 -46.93 21.89 -44.79 20.66 C-39.73 17.75 -34.68 14.82 -29.69 11.8 C-27.92 10.73 -26.15 9.67 -24.37 8.61 C-22.14 7.28 -19.92 5.93 -17.71 4.57 C-11.43 0.84 -7.32 -0.92 0 0 Z " fill="#FCFCFC" transform="translate(375,312)"/>
<path d="M0 0 C0.86 -0.02 1.71 -0.04 2.59 -0.06 C13.65 -0.13 21.43 4.21 30.75 9.81 C31.79 10.43 32.84 11.05 33.91 11.69 C36.02 12.94 38.13 14.2 40.23 15.46 C43.01 17.11 45.8 18.74 48.59 20.36 C49.39 20.82 50.18 21.28 51 21.76 C52.47 22.61 53.95 23.46 55.42 24.32 C57.05 25.27 58.65 26.25 60.25 27.25 C60.25 27.58 60.25 27.91 60.25 28.25 C59.3 28.31 58.34 28.37 57.36 28.43 C56.11 28.52 54.85 28.6 53.56 28.69 C52.32 28.77 51.08 28.85 49.8 28.93 C46.38 29.15 46.38 29.15 43.62 29.89 C40.6 30.35 38.92 29.68 36.06 28.62 C28.16 26 20.09 24.6 11.89 23.18 C-10.27 19.19 -10.27 19.19 -17.75 10.25 C-17.75 9.59 -17.75 8.93 -17.75 8.25 C-18.84 8.11 -19.94 7.96 -21.06 7.81 C-24.75 7.25 -24.75 7.25 -27.75 6.25 C-25.69 5.43 -23.63 4.62 -21.56 3.81 C-20.41 3.36 -19.27 2.91 -18.08 2.44 C-11.98 0.26 -6.42 0.04 0 0 Z " fill="#313637" transform="translate(340.75,-0.25)"/>
<path d="M0 0 C2.38 0.69 2.38 0.69 3.38 1.69 C3.99 6.98 2.6 9.54 -0.62 13.69 C-1.1 14.31 -1.57 14.93 -2.06 15.56 C-4.29 17.16 -5.96 16.97 -8.62 16.69 C-9.62 15.69 -9.62 15.69 -9.94 12 C-9.89 7.58 -8.47 5.11 -5.62 1.69 C-2.62 -0.31 -2.62 -0.31 0 0 Z " fill="#ECC613" transform="translate(224.625,156.3125)"/>
<path d="M0 0 C0.27 5.37 0.4 8.59 -3 13 C-3.45 13.6 -3.91 14.2 -4.38 14.81 C-6.69 16.5 -8.21 16.43 -11 16 C-13 13 -13 13 -12.94 9.69 C-11.78 5.12 -10.27 3.34 -7 0 C-4.33 -1.33 -2.83 -0.67 0 0 Z " fill="#E32A64" transform="translate(199,173)"/>
<path d="M0 0 C2.38 0.69 2.38 0.69 3.38 1.69 C3.99 6.98 2.6 9.54 -0.62 13.69 C-1.1 14.31 -1.57 14.93 -2.06 15.56 C-4.26 17.15 -5.99 16.9 -8.62 16.69 C-10.18 13.58 -9.91 11.12 -9.62 7.69 C-5.09 -0.61 -5.09 -0.61 0 0 Z " fill="#15E1A5" transform="translate(252.625,140.3125)"/>
<path d="M0 0 C0.33 0 0.66 0 1 0 C1.19 2.48 1.38 4.96 1.56 7.44 C1.62 8.14 1.67 8.85 1.73 9.58 C1.86 11.38 1.94 13.19 2 15 C1 16 1 16 -1.5 16.12 C-4 16 -4 16 -5 15 C-5.52 8.87 -4.99 5.96 -1 1 C-0.67 0.67 -0.34 0.34 0 0 Z " fill="#EFB215" transform="translate(220,157)"/>
<path d="M0 0 C1.68 0.29 3.34 0.62 5 1 C5.44 9.67 5.44 9.67 2 14 C1.01 14.66 0.02 15.32 -1 16 C-1.03 13.52 -1.05 11.04 -1.06 8.56 C-1.08 7.5 -1.08 7.5 -1.09 6.42 C-1.1 4.61 -1.05 2.81 -1 1 C-0.67 0.67 -0.34 0.34 0 0 Z " fill="#F74C89" transform="translate(194,172)"/>
<path d="M0 0 C0.33 0 0.66 0 1 0 C1 5.28 1 10.56 1 16 C-0.65 16 -2.3 16 -4 16 C-5.55 12.89 -5.29 10.44 -5 7 C-3.5 4.39 -2.13 2.13 0 0 Z " fill="#0ABEAE" transform="translate(248,141)"/>
</svg>
